<svg xmlns="http://www.w3.org/2000/svg" xmlns:xlink="http://www.w3.org/1999/xlink" width="36.749" height="44.105" viewBox="0 0 36.749 44.105">
  <defs>
    <clipPath id="clip-path">
      <rect id="사각형_130" data-name="사각형 130" width="36.749" height="44.105" fill="#fff"/>
    </clipPath>
  </defs>
  <g id="그룹_258" data-name="그룹 258" clip-path="url(#clip-path)">
    <path id="패스_257" data-name="패스 257" d="M18.687,1.75a24.552,24.552,0,0,0,16.937,8.709v14.1A16.3,16.3,0,0,1,32.744,33.9c-2.662,3.8-14.056,9.085-14.056,9.085S7.294,37.7,4.631,33.9A16.3,16.3,0,0,1,1.75,24.558v-14.1A24.552,24.552,0,0,0,18.687,1.75Z" transform="translate(-0.313 -0.313)" fill="#fff" stroke="#1586de" stroke-linecap="round" stroke-linejoin="round" stroke-width="3.5"/>
    <path id="패스_258" data-name="패스 258" d="M39.312,23.242V10.46A24.551,24.551,0,0,1,22.375,1.75V23.242Z" transform="translate(-4.001 -0.313)" fill="none" stroke="#85c2f2" stroke-linecap="round" stroke-linejoin="round" stroke-width="3.5"/>
    <path id="패스_259" data-name="패스 259" d="M1.75,27.921v1.316a16.3,16.3,0,0,0,2.88,9.339c2.663,3.8,14.057,9.085,14.057,9.085V27.921Z" transform="translate(-0.313 -4.993)" fill="none" stroke="#85c2f2" stroke-linecap="round" stroke-linejoin="round" stroke-width="3.5"/>
  </g>
</svg>
