<svg xmlns="http://www.w3.org/2000/svg" viewBox="0 0 38.7 34.7"><g id="Layer_2" data-name="Layer 2"><g id="레이어_1" data-name="레이어 1"><polyline points="4.7 11.5 18.9 6.5 33.6 2.1" style="fill:none;stroke:#5e3d0c;stroke-miterlimit:10;stroke-width:0.5px"/><path d="M9.2,22.6a3.9,3.9,0,0,0-4-3.9h0a4,4,0,0,0-3.9,3.9v8c0,2.1,1.8,2.7,4,2.7h0c2.1,0,3.9-.6,3.9-2.8Z" style="fill:#ffedbd;stroke:#5e3d0c;stroke-linecap:round;stroke-linejoin:round;stroke-width:0.5px"/><path d="M10.4,32.7a1.3,1.3,0,0,0-1.3-1.4H1.6A1.3,1.3,0,0,0,.3,32.7h0a1.3,1.3,0,0,0,1.3,1.4H9.1a1.3,1.3,0,0,0,1.3-1.4Z" style="fill:#fff;stroke:#5e3d0c;stroke-miterlimit:10;stroke-width:0.5px"/><polygon points="8.8 21.6 1.5 21.7 3.5 17.5 7 17.5 8.8 21.6" style="fill:#fff;stroke:#5e3d0c;stroke-linecap:round;stroke-linejoin:round;stroke-width:0.5px"/><polygon points="7 17.5 3.5 17.5 5.3 13.7 7 17.5" style="fill:#ffedbd;stroke:#5e3d0c;stroke-linecap:round;stroke-linejoin:round;stroke-width:0.5px"/><line x1="4.3" y1="29.9" x2="4.2" y2="23.7" style="fill:#ffedbd;stroke:#5e3d0c;stroke-linecap:round;stroke-linejoin:round;stroke-width:0.5px"/><line x1="6.6" y1="29.9" x2="6.5" y2="23.7" style="fill:#ffedbd;stroke:#5e3d0c;stroke-linecap:round;stroke-linejoin:round;stroke-width:0.5px"/><path d="M23,18.2a3.8,3.8,0,0,0-3.9-3.9h0a3.9,3.9,0,0,0-3.9,3.9V30.8c0,2.1,1.8,2.7,4,2.7h0c2.1,0,3.9-.6,3.9-2.8Z" style="fill:#ffedbd;stroke:#5e3d0c;stroke-linecap:round;stroke-linejoin:round;stroke-width:0.5px"/><path d="M24.3,32.9a1.4,1.4,0,0,0-1.4-1.4H15.4a1.4,1.4,0,0,0-1.3,1.4h0a1.3,1.3,0,0,0,1.3,1.4h7.5a1.3,1.3,0,0,0,1.4-1.3Z" style="fill:#fff;stroke:#5e3d0c;stroke-miterlimit:10;stroke-width:0.5px"/><polygon points="22.6 17.2 15.4 17.3 17.3 13.1 20.8 13.1 22.6 17.2" style="fill:#fff;stroke:#5e3d0c;stroke-linecap:round;stroke-linejoin:round;stroke-width:0.5px"/><polygon points="20.8 13.1 17.3 13.1 19.2 9.3 20.8 13.1" style="fill:#ffedbd;stroke:#5e3d0c;stroke-linecap:round;stroke-linejoin:round;stroke-width:0.5px"/><line x1="18.1" y1="30.1" x2="18" y2="19.3" style="fill:#ffedbd;stroke:#5e3d0c;stroke-linecap:round;stroke-linejoin:round;stroke-width:0.5px"/><line x1="20.4" y1="30" x2="20.4" y2="19.3" style="fill:#ffedbd;stroke:#5e3d0c;stroke-linecap:round;stroke-linejoin:round;stroke-width:0.5px"/><path d="M37.3,13.2a3.8,3.8,0,0,0-3.9-3.9h0a3.8,3.8,0,0,0-3.9,3.9V30.9c0,2.2,1.7,2.8,3.9,2.8h0c2.2,0,3.9-.6,3.9-2.8Z" style="fill:#ffedbd;stroke:#5e3d0c;stroke-linecap:round;stroke-linejoin:round;stroke-width:0.5px"/><path d="M38.5,33.1a1.4,1.4,0,0,0-1.4-1.4H29.7a1.4,1.4,0,0,0-1.4,1.4h0a1.4,1.4,0,0,0,1.4,1.4h7.4a1.3,1.3,0,0,0,1.4-1.3Z" style="fill:#fff;stroke:#5e3d0c;stroke-miterlimit:10;stroke-width:0.5px"/><polygon points="36.9 12.2 29.7 12.2 31.6 8.1 35.1 8.1 36.9 12.2" style="fill:#fff;stroke:#5e3d0c;stroke-linecap:round;stroke-linejoin:round;stroke-width:0.5px"/><polygon points="35.1 8.1 31.6 8.1 33.5 4.3 35.1 8.1" style="fill:#ffedbd;stroke:#5e3d0c;stroke-linecap:round;stroke-linejoin:round;stroke-width:0.5px"/><line x1="32.3" y1="30.2" x2="32.3" y2="14.3" style="fill:#ffedbd;stroke:#5e3d0c;stroke-linecap:round;stroke-linejoin:round;stroke-width:0.5px"/><line x1="34.7" y1="30.2" x2="34.7" y2="14.2" style="fill:#ffedbd;stroke:#5e3d0c;stroke-linecap:round;stroke-linejoin:round;stroke-width:0.5px"/><path d="M6,10.2a1.3,1.3,0,0,1-1.3,1.3,1.2,1.2,0,0,1-1.2-1.3A1.2,1.2,0,0,1,4.7,9,1.3,1.3,0,0,1,6,10.2Z" style="fill:#bad3ff;stroke:#5e3d0c;stroke-miterlimit:10;stroke-width:0.5px"/><path d="M20.2,6.1a1.3,1.3,0,0,1-1.3,1.3,1.3,1.3,0,0,1-1.2-1.3,1.3,1.3,0,0,1,1.2-1.2A1.3,1.3,0,0,1,20.2,6.1Z" style="fill:#bad3ff;stroke:#5e3d0c;stroke-miterlimit:10;stroke-width:0.5px"/><path d="M34.9,1.5a1.2,1.2,0,0,1-1.3,1.2,1.2,1.2,0,0,1-1.2-1.2A1.3,1.3,0,0,1,33.6.2,1.3,1.3,0,0,1,34.9,1.5Z" style="fill:#bad3ff;stroke:#5e3d0c;stroke-miterlimit:10;stroke-width:0.5px"/></g></g></svg>