<svg xmlns="http://www.w3.org/2000/svg" viewBox="0 0 50.2 45"><g id="Layer_2" data-name="Layer 2"><g id="레이어_1" data-name="레이어 1"><polyline points="6.1 14.8 24.6 8.4 43.7 2.7" style="fill:none;stroke:#5e3d0c;stroke-miterlimit:10;stroke-width:0.5px"/><path d="M11.8,29.3a5.1,5.1,0,0,0-5.1-5.1h0a5.2,5.2,0,0,0-5.1,5.2l.2,10.3c0,2.8,2.3,3.5,5.1,3.5h0c2.8,0,5.1-.8,5.1-3.6Z" style="fill:#ffedbd;stroke:#5e3d0c;stroke-linecap:round;stroke-linejoin:round;stroke-width:0.5px"/><path d="M13.5,42.4a1.8,1.8,0,0,0-1.8-1.8H2A1.7,1.7,0,0,0,.3,42.5h0A1.8,1.8,0,0,0,2,44.3h9.7a1.8,1.8,0,0,0,1.8-1.8Z" style="fill:#fff;stroke:#5e3d0c;stroke-miterlimit:10;stroke-width:0.5px"/><polygon points="11.3 28 1.9 28.1 4.4 22.7 9 22.7 11.3 28" style="fill:#fff;stroke:#5e3d0c;stroke-linecap:round;stroke-linejoin:round;stroke-width:0.5px"/><polygon points="9 22.7 4.4 22.7 6.8 17.7 9 22.7" style="fill:#ffedbd;stroke:#5e3d0c;stroke-linecap:round;stroke-linejoin:round;stroke-width:0.5px"/><line x1="5.5" y1="38.8" x2="5.3" y2="30.7" style="fill:#ffedbd;stroke:#5e3d0c;stroke-linecap:round;stroke-linejoin:round;stroke-width:0.5px"/><line x1="8.5" y1="38.7" x2="8.4" y2="30.7" style="fill:#ffedbd;stroke:#5e3d0c;stroke-linecap:round;stroke-linejoin:round;stroke-width:0.5px"/><path d="M29.9,23.6a5.1,5.1,0,0,0-5.1-5.1h0a5.1,5.1,0,0,0-5.1,5.1V39.9c0,2.8,2.3,3.6,5.1,3.6h0c2.9-.1,5.1-.8,5.1-3.6Z" style="fill:#ffedbd;stroke:#5e3d0c;stroke-linecap:round;stroke-linejoin:round;stroke-width:0.5px"/><path d="M31.5,42.7a1.8,1.8,0,0,0-1.8-1.8H20a1.8,1.8,0,0,0-1.8,1.8h0A1.8,1.8,0,0,0,20,44.5h9.7a1.9,1.9,0,0,0,1.8-1.8Z" style="fill:#fff;stroke:#5e3d0c;stroke-miterlimit:10;stroke-width:0.5px"/><polygon points="29.4 22.3 19.9 22.4 22.5 17 27 17 29.4 22.3" style="fill:#fff;stroke:#5e3d0c;stroke-linecap:round;stroke-linejoin:round;stroke-width:0.5px"/><polygon points="27 17 22.5 17 24.9 12 27 17" style="fill:#ffedbd;stroke:#5e3d0c;stroke-linecap:round;stroke-linejoin:round;stroke-width:0.5px"/><line x1="23.4" y1="39" x2="23.4" y2="25" style="fill:#ffedbd;stroke:#5e3d0c;stroke-linecap:round;stroke-linejoin:round;stroke-width:0.5px"/><line x1="26.5" y1="39" x2="26.4" y2="25" style="fill:#ffedbd;stroke:#5e3d0c;stroke-linecap:round;stroke-linejoin:round;stroke-width:0.5px"/><path d="M48.5,17a5,5,0,0,0-5.1-5h0a5.1,5.1,0,0,0-5.1,5.1V40.2c0,2.8,2.3,3.5,5.1,3.5h0c2.9,0,5.1-.8,5.1-3.6Z" style="fill:#ffedbd;stroke:#5e3d0c;stroke-linecap:round;stroke-linejoin:round;stroke-width:0.5px"/><path d="M50,42.9a1.8,1.8,0,0,0-1.8-1.8H38.5A1.8,1.8,0,0,0,36.7,43h0a1.8,1.8,0,0,0,1.8,1.8h9.7A1.8,1.8,0,0,0,50,42.9Z" style="fill:#fff;stroke:#5e3d0c;stroke-miterlimit:10;stroke-width:0.5px"/><polygon points="48 15.8 38.5 15.8 41.1 10.4 45.6 10.4 48 15.8" style="fill:#fff;stroke:#5e3d0c;stroke-linecap:round;stroke-linejoin:round;stroke-width:0.5px"/><polygon points="45.6 10.4 41.1 10.4 43.4 5.5 45.6 10.4" style="fill:#ffedbd;stroke:#5e3d0c;stroke-linecap:round;stroke-linejoin:round;stroke-width:0.5px"/><line x1="41.9" y1="39.3" x2="42" y2="18.5" style="fill:#ffedbd;stroke:#5e3d0c;stroke-linecap:round;stroke-linejoin:round;stroke-width:0.5px"/><line x1="45" y1="39.2" x2="45" y2="18.4" style="fill:#ffedbd;stroke:#5e3d0c;stroke-linecap:round;stroke-linejoin:round;stroke-width:0.5px"/><path d="M7.7,13.2a1.6,1.6,0,1,1-1.6-1.6A1.6,1.6,0,0,1,7.7,13.2Z" style="fill:#bad3ff;stroke:#5e3d0c;stroke-miterlimit:10;stroke-width:0.5px"/><path d="M26.2,7.9a1.6,1.6,0,0,1-1.6,1.6,1.6,1.6,0,0,1,0-3.2A1.6,1.6,0,0,1,26.2,7.9Z" style="fill:#bad3ff;stroke:#5e3d0c;stroke-miterlimit:10;stroke-width:0.5px"/><path d="M45.3,1.8a1.6,1.6,0,0,1-1.6,1.6,1.6,1.6,0,0,1-1.6-1.6A1.6,1.6,0,0,1,43.7.2,1.7,1.7,0,0,1,45.3,1.8Z" style="fill:#bad3ff;stroke:#5e3d0c;stroke-miterlimit:10;stroke-width:0.5px"/></g></g></svg>